<?xml version="1.0" encoding="UTF-8" standalone="no"?>
<!-- Created with Inkscape (http://www.inkscape.org/) -->

<svg
   xmlns:dc="http://purl.org/dc/elements/1.1/"
   xmlns:cc="http://creativecommons.org/ns#"
   xmlns:rdf="http://www.w3.org/1999/02/22-rdf-syntax-ns#"
   xmlns:svg="http://www.w3.org/2000/svg"
   xmlns="http://www.w3.org/2000/svg"
   xmlns:sodipodi="http://sodipodi.sourceforge.net/DTD/sodipodi-0.dtd"
   xmlns:inkscape="http://www.inkscape.org/namespaces/inkscape"
   width="622.32611"
   height="597.42944"
   id="svg2"
   version="1.1"
   inkscape:version="0.48.3.1 r9886"
   sodipodi:docname="schwarzwald.svg">
  <defs
     id="defs4">
    <clipPath
       clipPathUnits="userSpaceOnUse"
       id="clipPath3381">
      <path
         inkscape:connector-curvature="0"
         d="m 650.57,3326.39 2379.49,0 0,-3172.652 -2379.49,0 0,3172.652"
         id="path3383" />
    </clipPath>
    <clipPath
       clipPathUnits="userSpaceOnUse"
       id="clipPath3399">
      <path
         inkscape:connector-curvature="0"
         d="m 0,0 3738,0 0,3415.72 -3738,0 L 0,0 z"
         id="path3401" />
    </clipPath>
  </defs>
  <sodipodi:namedview
     id="base"
     pagecolor="#ffffff"
     bordercolor="#666666"
     borderopacity="1.0"
     inkscape:pageopacity="0.0"
     inkscape:pageshadow="2"
     inkscape:zoom="0.49497475"
     inkscape:cx="322.42994"
     inkscape:cy="251.42176"
     inkscape:document-units="px"
     inkscape:current-layer="layer1"
     showgrid="false"
     showguides="true"
     inkscape:guide-bbox="true"
     inkscape:window-width="1280"
     inkscape:window-height="1002"
     inkscape:window-x="0"
     inkscape:window-y="0"
     inkscape:window-maximized="1"
     fit-margin-top="0"
     fit-margin-left="0"
     fit-margin-right="0"
     fit-margin-bottom="0" />
  <metadata
     id="metadata7">
    <rdf:RDF>
      <cc:Work
         rdf:about="">
        <dc:format>image/svg+xml</dc:format>
        <dc:type
           rdf:resource="http://purl.org/dc/dcmitype/StillImage" />
        <dc:title></dc:title>
      </cc:Work>
    </rdf:RDF>
  </metadata>
  <g
     inkscape:label="Ebene 1"
     inkscape:groupmode="layer"
     id="layer1"
     transform="translate(593.28975,-196.54834)">
    <path
       style="fill:#b3b3b3;stroke:#000000;stroke-width:1px;stroke-linecap:butt;stroke-linejoin:miter;stroke-opacity:1"
       d="m -429.31483,403.84425 c -37.38181,-7.918 -33.81108,30.31292 11.61675,44.4467 69.90784,30.80745 82.71636,28.75923 197.05806,25.20863 61.09836,-2.59039 93.13755,-29.98801 120.12984,-72.18071"
       id="path3031"
       inkscape:connector-curvature="0"
       sodipodi:nodetypes="cccc" />
    <g
       id="g3377"
       transform="matrix(0.14179265,0,0,-0.13786673,-558.3845,777.70233)">
      <g
         clip-path="url(#clipPath3381)"
         id="g3379">
        <path
           id="path3385"
           style="fill:#231f20;fill-opacity:1;fill-rule:nonzero;stroke:none"
           d="m 2541.25,1524.68 c -18.71,-206 -74.03,-438.23 -206.21,-571.039 -5.32,-27.782 7.91,-23.832 23.78,-31.789 103.13,-15.821 203.57,59.48 293.46,7.957 44.29,-19.821 0,-23.778 0,-23.778 -166.55,-31.742 -317.24,-63.429 -483.84,-55.519 -15.82,0 -39.65,-23.821 -47.56,-39.641 -15.87,-31.793 15.87,-63.48 39.65,-55.519 229.98,23.726 444.14,55.519 674.22,0 0,0 28.42,-2 30.37,-19.872 2,-17.832 -30.37,-7.082 -30.37,-11.921 -150.73,7.91 -293.5,39.703 -444.24,0 -103.02,-15.868 -214.06,-63.43 -317.18,-23.778 -71.39,31.688 -150.74,-15.871 -214.19,23.778 -23.8,15.921 23.8,39.703 23.8,63.48 0,39.652 -39.67,63.473 -71.41,87.25 -15.82,7.961 -23.78,-23.777 -23.78,-31.687 -7.93,-39.692 0,-63.524 39.68,-95.211 7.91,-7.911 33.03,-29.743 0,-31.743 -33.08,-1.949 -142.8,-79.296 -214.16,-15.867 -222.1,-47.562 -620,-71.34 -650.395,-63.429 -30.371,7.957 -13.742,17.777 -8.273,20.847 78.368,43.903 324.218,79.641 507.958,82.281 56.08,0.782 23.8,71.391 -23.78,79.301 -174.49,7.91 -348.98,-71.39 -523.487,-63.429 -31.738,0 -99.172,-2.641 -95.164,15.82 108.394,112.348 277.611,87.297 436.251,79.34 47.54,0 142.73,0 142.73,63.429 0,55.52 -95.19,39.7 -126.88,87.259 -190.34,309.32 -95.19,729.73 214.13,920.02 23.78,15.92 63.45,-39.6 39.68,-55.52 -119,-142.72 -245.88,-285.55 -253.81,-467.92 -7.94,-126.85 -23.78,-285.55 95.16,-380.71 15.87,-7.96 31.72,15.82 39.65,23.78 7.96,63.47 39.67,126.95 87.26,158.64 31.74,15.87 71.38,15.87 87.25,47.61 0,7.91 0,21.09 10.57,37.01 10.58,15.87 37.04,18.5 60.82,26.41 87.26,31.74 47.61,166.56 47.61,253.81 0,31.69 39.65,39.6 63.42,23.78 31.74,-31.74 39.68,-71.34 39.68,-111.03 7.88,-119 -15.9,-237.94 -87.26,-333.11 -7.93,-23.83 -47.61,7.91 -79.32,-7.96 -95.17,-55.51 -182.45,-150.682 -166.55,-261.721 7.91,-39.598 71.38,-15.82 103.07,-23.777 47.59,0 126.96,7.957 150.71,71.34 15.9,39.699 23.81,95.218 55.52,87.258 47.61,-15.872 39.67,-134.821 111.06,-126.86 79.32,15.82 182.45,-31.738 214.13,39.602 15.87,47.609 -32.37,146.728 -39.59,158.648 -7.33,11.86 -71.44,55.51 -95.22,55.51 -31.74,0 -87.26,-7.91 -79.32,23.78 31.71,150.73 -7.94,293.51 71.31,436.23 23.83,39.7 87.31,31.79 79.4,-7.91 -23.83,-95.11 -103.13,-190.33 -47.61,-269.63 31.74,-55.56 95.17,-95.21 166.55,-126.9 39.65,-23.78 39.65,-87.26 87.31,-118.99 39.65,-23.83 79.29,7.91 95.11,39.64 63.48,166.61 126.91,325.2 111.04,507.62 -7.91,55.52 -23.78,118.99 -39.65,174.46 -23.83,79.35 -134.86,119 -126.85,206.25 0,39.7 47.55,15.87 79.29,0 150.69,-111.03 190.33,-301.41 174.47,-475.88"
           inkscape:connector-curvature="0" />
        <path
           id="path3387"
           style="fill:#231f20;fill-opacity:1;fill-rule:nonzero;stroke:none"
           d="m 2163.17,1493 c 11.03,54.93 -15.87,110.93 -7.91,166.5 7.91,23.78 37.69,23.78 53.51,0 15.87,-23.78 -11.91,-29.79 13.87,-49.56 25.78,-19.83 51.56,2 83.3,25.78 15.87,7.91 21.83,7.91 39.65,-23.78 27.78,-49.61 15.92,-317.24 -126.9,-356.93 -49.56,-3.96 -15.87,23.83 -15.87,31.74 31.74,47.55 79.29,118.94 31.74,150.68 -31.74,31.74 -47.56,-79.35 -87.26,-55.57 -47.61,23.83 7.96,71.44 15.87,111.14"
           inkscape:connector-curvature="0" />
        <path
           id="path3389"
           style="fill:#231f20;fill-opacity:1;fill-rule:nonzero;stroke:none"
           d="m 1570.3,1473.12 c 5.15,86.82 19.82,120.95 57.49,154.69 2,7.91 19.85,81.25 -63.45,37.65 -21.83,-11.87 -15.87,-53.52 -37.65,-65.43 -21.82,-11.92 -33.71,51.56 -69.92,14.25 -62.94,-71.72 -172.36,-266.84 -68.53,-372.6 6.86,-4.01 29.76,-41.6 29.59,19.58 -0.19,61.13 -9.23,142.67 47.88,146.33 43.33,11.63 22.68,-70.06 68.87,-69.28 53.15,-3.18 33.35,94.43 35.72,134.81"
           inkscape:connector-curvature="0" />
        <path
           id="path3391"
           style="fill:#231f20;fill-opacity:1;fill-rule:nonzero;stroke:none"
           d="m 1877.64,1857.84 c 31.72,7.86 39.68,31.69 31.72,63.38 -15.84,39.7 -71.36,23.83 -71.36,-15.82 0,-23.78 15.87,-47.56 39.64,-47.56 z m 5.3,-126.91 c -8.52,-7.32 -15.86,-23.87 -23.8,-23.87 -55.49,7.91 -71.39,63.47 -87.26,103.12 -31.68,63.48 -31.68,142.83 39.65,190.38 7.96,15.87 7.96,39.7 15.9,55.52 23.8,39.65 87.25,31.74 95.16,-15.82 7.96,-55.57 55.52,-87.25 63.43,-126.95 23.83,-71.39 -47.56,-134.82 -103.08,-182.38"
           inkscape:connector-curvature="0" />
        <path
           id="path3393"
           style="fill:#231f20;fill-opacity:1;fill-rule:nonzero;stroke:none"
           d="m 1687.27,2389.24 c -87.24,-23.78 -150.66,-150.74 -111.04,-237.94 15.89,-23.83 63.48,23.78 95.19,0 15.85,-15.92 23.8,-39.7 47.58,-47.61 47.61,0 56.82,78.81 71.39,118.94 31.74,87.26 0,206.25 -103.12,166.61 z m -95.15,198.29 c 15.85,-23.83 47.59,7.91 71.37,0 7.93,31.68 -15.85,39.59 -39.68,39.59 -23.78,0 -39.62,-15.82 -31.69,-39.59 z m 555.18,-158.65 c -87.26,-23.78 -150.68,-150.73 -111.04,-237.94 15.87,-23.77 63.43,23.78 95.17,0 15.87,-15.86 23.83,-39.64 47.66,-47.55 47.56,0 56.74,78.8 71.38,118.94 31.64,87.21 0,206.15 -103.17,166.55 z m -333.08,-348.97 c -34.33,-53.96 -79.35,-126.9 -150.73,-126.9 -103.1,0 -166.56,95.16 -166.56,182.37 -7.93,63.47 15.85,134.86 47.59,198.29 23.8,39.7 39.67,126.9 -23.81,134.81 -15.84,0 -23.78,-23.78 -31.71,-39.6 -7.91,-142.77 -101.1,-267.72 -39.65,-420.41 23.8,-55.46 0,-37.64 -15.87,-39.64 -118.97,79.34 -47.58,277.58 -23.8,388.62 7.96,79.34 39.67,158.69 47.61,245.9 0,15.86 15.86,31.74 31.71,47.6 95.19,63.43 190.36,47.61 293.48,23.78 7.91,0 23.8,15.82 23.8,23.83 -7.93,47.61 -63.45,63.43 -87.28,95.22 -31.73,39.6 39.68,47.51 63.48,31.68 71.39,-31.68 118.97,-150.73 182.45,-118.99 95.11,55.52 214.16,142.78 301.36,87.31 87.26,-47.61 -150.68,-23.83 -126.9,-87.31 23.78,-63.47 214.16,47.56 222.12,-47.61 0,-7.91 -39.7,-31.74 -23.83,-47.56 31.74,-39.69 87.26,-71.38 87.26,-118.99 0,-134.86 63.42,-309.32 -71.39,-388.62 -39.7,-23.78 0,39.7 -23.83,71.39 -79.25,-87.26 -166.55,-237.94 -301.37,-158.7 -55.51,39.7 -71.43,95.22 -79.34,158.7 0,111.03 31.74,253.8 134.86,293.4 79.3,23.83 182.42,31.79 253.81,-47.55 15.87,-7.92 35.69,-39.65 39.65,23.77 -75.34,162.6 -269.68,55.57 -412.4,87.26 -55.57,15.87 -79.35,71.39 -134.87,79.34 -15.84,7.91 -23.78,-15.86 -15.84,-31.78 15.84,-31.69 55.49,-55.47 31.69,-87.21 -31.69,-39.65 -71.36,15.87 -111.04,7.96 -15.87,-7.96 -57.49,-17.87 -15.87,-39.7 41.65,-21.77 95.22,-23.78 126.91,-71.33 55.54,-111.09 23.8,-222.07 -31.69,-309.33"
           inkscape:connector-curvature="0" />
      </g>
    </g>
    <path
       style="fill:#cccccc;fill-opacity:1;stroke:#000000;stroke-width:1.0629921;stroke-miterlimit:4;stroke-opacity:1;stroke-dasharray:none"
       d="m -412.58439,402.32773 c 0.0564,1.06753 -9.18535,0.63725 -14.30068,0.80052 -5.11532,0.16327 -6.10426,0.9201 10.45766,4.36188 57.16392,11.87938 82.84377,20.10362 156.55241,20.10362 68.50328,0 121.2504,-7.57457 143.25581,-18.12549 5.66119,-2.71436 15.89082,-5.62571 16.05082,-8.65576 z"
       id="path2996"
       inkscape:connector-curvature="0"
       sodipodi:nodetypes="csssscc" />
    <path
       sodipodi:type="arc"
       style="fill:#ff0000;fill-opacity:1;stroke:#000000;stroke-width:1.0629921;stroke-miterlimit:4;stroke-opacity:1;stroke-dasharray:none"
       id="path3025"
       sodipodi:cx="-272.99371"
       sodipodi:cy="319.24396"
       sodipodi:rx="43.689098"
       sodipodi:ry="39.14341"
       d="m -229.30462,319.24396 c 0,21.61831 -19.56027,39.14341 -43.68909,39.14341 -24.12883,0 -43.6891,-17.5251 -43.6891,-39.14341 0,-21.61831 19.56027,-39.14341 43.6891,-39.14341 24.12882,0 43.68909,17.5251 43.68909,39.14341 z" />
    <path
       sodipodi:type="arc"
       style="fill:#ff0000;fill-opacity:1;stroke:#000000;stroke-width:1.0629921;stroke-miterlimit:4;stroke-opacity:1;stroke-dasharray:none"
       id="path3021"
       sodipodi:cx="-210.61681"
       sodipodi:cy="320.00159"
       sodipodi:rx="52.022858"
       sodipodi:ry="49.497475"
       d="m -158.59395,320.00159 c 0,27.3367 -23.29143,49.49747 -52.02286,49.49747 -28.73143,0 -52.02285,-22.16077 -52.02285,-49.49747 0,-27.3367 23.29142,-49.49748 52.02285,-49.49748 28.73143,0 52.02286,22.16078 52.02286,49.49748 z"
       transform="matrix(0.84627094,0,0,0.83842762,-53.591126,69.381089)" />
    <path
       sodipodi:type="arc"
       style="fill:#ff0000;fill-opacity:1;stroke:#000000;stroke-width:1.0629921;stroke-miterlimit:4;stroke-opacity:1;stroke-dasharray:none"
       id="path2998"
       sodipodi:cx="-362.64478"
       sodipodi:cy="408.13739"
       sodipodi:rx="37.375645"
       sodipodi:ry="29.546963"
       d="m -325.26913,408.13739 c 0,16.31834 -16.73365,29.54696 -37.37565,29.54696 -20.64199,0 -37.37564,-13.22862 -37.37564,-29.54696 0,-16.31834 16.73365,-29.54696 37.37564,-29.54696 20.642,0 37.37565,13.22862 37.37565,29.54696 z"
       transform="matrix(1.1913838,0,0,1.4643145,159.05536,-218.54601)" />
    <path
       sodipodi:type="arc"
       style="fill:#ff0000;fill-opacity:1;stroke:#000000;stroke-width:1.0629921;stroke-miterlimit:4;stroke-opacity:1;stroke-dasharray:none"
       id="path3019"
       sodipodi:cx="-316.68283"
       sodipodi:cy="331.87088"
       sodipodi:rx="48.992397"
       sodipodi:ry="35.607876"
       d="m -267.69043,331.87088 c 0,19.66569 -21.93465,35.60788 -48.9924,35.60788 -27.05775,0 -48.9924,-15.94219 -48.9924,-35.60788 0,-19.66569 21.93465,-35.60788 48.9924,-35.60788 27.05775,0 48.9924,15.94219 48.9924,35.60788 z"
       transform="matrix(0.88728603,0,0,1.0859051,-46.806256,-28.504137)" />
    <path
       sodipodi:type="arc"
       style="fill:#ff0000;fill-opacity:1;stroke:#000000;stroke-width:1.0629921;stroke-miterlimit:4;stroke-opacity:1;stroke-dasharray:none"
       id="path3000"
       sodipodi:cx="-289.66125"
       sodipodi:cy="370.25668"
       sodipodi:rx="40.658642"
       sodipodi:ry="29.041885"
       d="m -249.00261,370.25668 c 0,16.03939 -18.2035,29.04189 -40.65864,29.04189 -22.45515,0 -40.65865,-13.0025 -40.65865,-29.04189 0,-16.03939 18.2035,-29.04188 40.65865,-29.04188 22.45514,0 40.65864,13.00249 40.65864,29.04188 z"
       transform="matrix(1.1276765,0,0,1.3004863,133.19998,-98.3776)" />
    <path
       sodipodi:type="arc"
       style="fill:#ff0000;fill-opacity:1;stroke:#000000;stroke-width:1.0629921;stroke-miterlimit:4;stroke-opacity:1;stroke-dasharray:none"
       id="path3015"
       sodipodi:cx="-340.16888"
       sodipodi:cy="375.55997"
       sodipodi:rx="43.689098"
       sodipodi:ry="38.890873"
       d="m -296.47979,375.55997 c 0,21.47883 -19.56027,38.89087 -43.68909,38.89087 -24.12883,0 -43.6891,-17.41204 -43.6891,-38.89087 0,-21.47884 19.56027,-38.89088 43.6891,-38.89088 24.12882,0 43.68909,17.41204 43.68909,38.89088 z"
       transform="translate(-6.0609153,4.5456865)" />
    <g
       id="g3395"
       transform="matrix(0.17881871,0,0,-0.17881871,-619.03329,799.47157)">
      <g
         clip-path="url(#clipPath3399)"
         id="g3397">
        <g
           transform="scale(10,10)"
           id="g3403">
          <text
             id="text3405"
             transform="matrix(-0.708941,0.705267,0.705267,0.708941,96.1664,38.784)">
            <tspan
               id="tspan3407"
               y="0"
               x="0"
               style="font-size:43.30367661px;font-variant:normal;font-weight:normal;writing-mode:lr-tb;fill:#231f20;fill-opacity:1;fill-rule:nonzero;stroke:none;font-family:Myriad;-inkscape-font-specification:Myriad-Roman">M</tspan>
          </text>
          <text
             id="text3409"
             transform="matrix(-0.56182,0.827259,0.827259,0.56182,71.7727,64.032)">
            <tspan
               id="tspan3411"
               y="0"
               x="0"
               style="font-size:43.30368042px;font-variant:normal;font-weight:normal;writing-mode:lr-tb;fill:#231f20;fill-opacity:1;fill-rule:nonzero;stroke:none;font-family:Myriad;-inkscape-font-specification:Myriad-Roman">a</tspan>
          </text>
          <text
             id="text3413"
             transform="matrix(-0.459418,0.88822,0.88822,0.459418,60.2961,81.2582)">
            <tspan
               id="tspan3415"
               y="0"
               x="0"
               style="font-size:43.30369186px;font-variant:normal;font-weight:normal;writing-mode:lr-tb;fill:#231f20;fill-opacity:1;fill-rule:nonzero;stroke:none;font-family:Myriad;-inkscape-font-specification:Myriad-Roman">t</tspan>
          </text>
          <text
             id="text3417"
             transform="matrix(-0.338385,0.941008,0.941008,0.338385,53.3984,93.902)">
            <tspan
               id="tspan3419"
               y="0"
               x="0"
               style="font-size:43.30371094px;font-variant:normal;font-weight:normal;writing-mode:lr-tb;fill:#231f20;fill-opacity:1;fill-rule:nonzero;stroke:none;font-family:Myriad;-inkscape-font-specification:Myriad-Roman">h</tspan>
          </text>
          <text
             id="text3421"
             transform="matrix(-0.186635,0.982429,0.982429,0.186635,45.3477,116.573)">
            <tspan
               id="tspan3423"
               y="0"
               x="0"
               style="font-size:43.30368805px;font-variant:normal;font-weight:normal;writing-mode:lr-tb;fill:#231f20;fill-opacity:1;fill-rule:nonzero;stroke:none;font-family:Myriad;-inkscape-font-specification:Myriad-Roman">e</tspan>
          </text>
          <text
             id="text3425"
             transform="matrix(0.0162124,0.999869,0.999869,-0.0162124,40.4633,137.915)">
            <tspan
               id="tspan3427"
               y="0"
               x="0"
               style="font-size:43.30371857px;font-variant:normal;font-weight:normal;writing-mode:lr-tb;fill:#231f20;fill-opacity:1;fill-rule:nonzero;stroke:none;font-family:Myriad;-inkscape-font-specification:Myriad-Roman">m</tspan>
          </text>
          <text
             id="text3429"
             transform="matrix(0.201422,0.979504,0.979504,-0.201422,41.6461,174.041)">
            <tspan
               id="tspan3431"
               y="0"
               x="0"
               style="font-size:43.30367661px;font-variant:normal;font-weight:normal;writing-mode:lr-tb;fill:#231f20;fill-opacity:1;fill-rule:nonzero;stroke:none;font-family:Myriad;-inkscape-font-specification:Myriad-Roman">a</tspan>
          </text>
          <text
             id="text3433"
             transform="matrix(0.317416,0.948286,0.948286,-0.317416,46.002,194.297)">
            <tspan
               id="tspan3435"
               y="0"
               x="0"
               style="font-size:43.30368423px;font-variant:normal;font-weight:normal;writing-mode:lr-tb;fill:#231f20;fill-opacity:1;fill-rule:nonzero;stroke:none;font-family:Myriad;-inkscape-font-specification:Myriad-Roman">t</tspan>
          </text>
          <text
             id="text3437"
             transform="matrix(0.396045,0.918231,0.918231,-0.396045,50.6316,207.851)">
            <tspan
               id="tspan3439"
               y="0"
               x="0"
               style="font-size:43.30369568px;font-variant:normal;font-weight:normal;writing-mode:lr-tb;fill:#231f20;fill-opacity:1;fill-rule:nonzero;stroke:none;font-family:Myriad;-inkscape-font-specification:Myriad-Roman">i</tspan>
          </text>
          <text
             id="text3441"
             transform="matrix(0.489753,0.871861,0.871861,-0.489753,54.416,217.291)">
            <tspan
               id="tspan3443"
               y="0"
               x="0"
               style="font-size:43.30369186px;font-variant:normal;font-weight:normal;writing-mode:lr-tb;fill:#231f20;fill-opacity:1;fill-rule:nonzero;stroke:none;font-family:Myriad;-inkscape-font-specification:Myriad-Roman">k</tspan>
          </text>
          <text
             id="text3445"
             transform="matrix(0.75535,0.655322,0.655322,-0.75535,81.4742,256.695)">
            <tspan
               id="tspan3447"
               y="0"
               x="0"
               style="font-size:48.71661377px;font-variant:normal;font-weight:bold;writing-mode:lr-tb;fill:#231f20;fill-opacity:1;fill-rule:nonzero;stroke:none;font-family:Myriad;-inkscape-font-specification:Myriad-Bold">F</tspan>
          </text>
          <text
             id="text3449"
             transform="matrix(0.851357,0.524586,0.524586,-0.851357,99.3871,272.438)">
            <tspan
               id="tspan3451"
               y="0"
               x="0"
               style="font-size:48.71668243px;font-variant:normal;font-weight:bold;writing-mode:lr-tb;fill:#231f20;fill-opacity:1;fill-rule:nonzero;stroke:none;font-family:Myriad;-inkscape-font-specification:Myriad-Bold">a</tspan>
          </text>
          <text
             id="text3453"
             transform="matrix(0.925491,0.37877,0.37877,-0.925491,121.408,285.824)">
            <tspan
               id="tspan3455"
               y="0"
               x="0"
               style="font-size:48.71660614px;font-variant:normal;font-weight:bold;writing-mode:lr-tb;fill:#231f20;fill-opacity:1;fill-rule:nonzero;stroke:none;font-family:Myriad;-inkscape-font-specification:Myriad-Bold">c</tspan>
          </text>
          <text
             id="text3457"
             transform="matrix(0.977112,0.212724,0.212724,-0.977112,141.714,294.436)">
            <tspan
               id="tspan3459"
               y="0"
               x="0"
               style="font-size:48.71658325px;font-variant:normal;font-weight:bold;writing-mode:lr-tb;fill:#231f20;fill-opacity:1;fill-rule:nonzero;stroke:none;font-family:Myriad;-inkscape-font-specification:Myriad-Bold">h</tspan>
          </text>
          <text
             id="text3461"
             transform="matrix(0.999,0.0447001,0.0447001,-0.999,169.69,300.197)">
            <tspan
               id="tspan3463"
               y="0"
               x="0"
               style="font-size:48.71667862px;font-variant:normal;font-weight:bold;writing-mode:lr-tb;fill:#231f20;fill-opacity:1;fill-rule:nonzero;stroke:none;font-family:Myriad;-inkscape-font-specification:Myriad-Bold">s</tspan>
          </text>
          <text
             id="text3465"
             transform="matrix(0.994922,-0.100651,-0.100651,-0.994922,190.851,301.175)">
            <tspan
               id="tspan3467"
               y="0"
               x="0"
               style="font-size:48.71670914px;font-variant:normal;font-weight:bold;writing-mode:lr-tb;fill:#231f20;fill-opacity:1;fill-rule:nonzero;stroke:none;font-family:Myriad;-inkscape-font-specification:Myriad-Bold">c</tspan>
          </text>
          <text
             id="text3469"
             transform="matrix(0.962587,-0.270971,-0.270971,-0.962587,212.839,299.233)">
            <tspan
               id="tspan3471"
               y="0"
               x="0"
               style="font-size:48.71657562px;font-variant:normal;font-weight:bold;writing-mode:lr-tb;fill:#231f20;fill-opacity:1;fill-rule:nonzero;stroke:none;font-family:Myriad;-inkscape-font-specification:Myriad-Bold">h</tspan>
          </text>
          <text
             id="text3473"
             transform="matrix(0.89551,-0.445041,-0.445041,-0.89551,240.329,291.351)">
            <tspan
               id="tspan3475"
               y="0"
               x="0"
               style="font-size:48.71659088px;font-variant:normal;font-weight:bold;writing-mode:lr-tb;fill:#231f20;fill-opacity:1;fill-rule:nonzero;stroke:none;font-family:Myriad;-inkscape-font-specification:Myriad-Bold">a</tspan>
          </text>
          <text
             id="text3477"
             transform="matrix(0.821829,-0.569734,-0.569734,-0.821829,263.232,279.596)">
            <tspan
               id="tspan3479"
               y="0"
               x="0"
               style="font-size:48.7165947px;font-variant:normal;font-weight:bold;writing-mode:lr-tb;fill:#231f20;fill-opacity:1;fill-rule:nonzero;stroke:none;font-family:Myriad;-inkscape-font-specification:Myriad-Bold">f</tspan>
          </text>
          <text
             id="text3481"
             transform="matrix(0.745988,-0.66596,-0.66596,-0.745988,277.513,269.684)">
            <tspan
               id="tspan3483"
               y="0"
               x="0"
               style="font-size:48.7166214px;font-variant:normal;font-weight:bold;writing-mode:lr-tb;fill:#231f20;fill-opacity:1;fill-rule:nonzero;stroke:none;font-family:Myriad;-inkscape-font-specification:Myriad-Bold">t</tspan>
          </text>
          <text
             id="text3485"
             transform="matrix(0.518295,-0.855202,-0.855202,-0.518295,309.286,234.737)">
            <tspan
               id="tspan3487"
               y="0"
               x="0"
               style="font-size:43.30370331px;font-variant:normal;font-weight:normal;writing-mode:lr-tb;fill:#231f20;fill-opacity:1;fill-rule:nonzero;stroke:none;font-family:Myriad;-inkscape-font-specification:Myriad-Roman">I</tspan>
          </text>
          <text
             id="text3489"
             transform="matrix(0.395694,-0.918382,-0.918382,-0.395694,316.417,223.488)">
            <tspan
               id="tspan3491"
               y="0"
               x="0"
               style="font-size:43.30358505px;font-variant:normal;font-weight:normal;writing-mode:lr-tb;fill:#231f20;fill-opacity:1;fill-rule:nonzero;stroke:none;font-family:Myriad;-inkscape-font-specification:Myriad-Roman">n</tspan>
          </text>
          <text
             id="text3493"
             transform="matrix(0.257639,-0.966241,-0.966241,-0.257639,326.487,198.532)">
            <tspan
               id="tspan3495"
               y="0"
               x="0"
               style="font-size:43.30368805px;font-variant:normal;font-weight:normal;writing-mode:lr-tb;fill:#231f20;fill-opacity:1;fill-rule:nonzero;stroke:none;font-family:Myriad;-inkscape-font-specification:Myriad-Roman">f</tspan>
          </text>
          <text
             id="text3497"
             transform="matrix(0.118671,-0.992934,-0.992934,-0.118671,330.587,184)">
            <tspan
               id="tspan3499"
               y="0"
               x="0"
               style="font-size:43.30371475px;font-variant:normal;font-weight:normal;writing-mode:lr-tb;fill:#231f20;fill-opacity:1;fill-rule:nonzero;stroke:none;font-family:Myriad;-inkscape-font-specification:Myriad-Roman">o</tspan>
          </text>
          <text
             id="text3501"
             transform="matrix(-0.0288879,-0.999583,-0.999583,0.0288879,333.182,157.447)">
            <tspan
               id="tspan3503"
               y="0"
               x="0"
               style="font-size:43.30371475px;font-variant:normal;font-weight:normal;writing-mode:lr-tb;fill:#231f20;fill-opacity:1;fill-rule:nonzero;stroke:none;font-family:Myriad;-inkscape-font-specification:Myriad-Roman">r</tspan>
          </text>
          <text
             id="text3505"
             transform="matrix(-0.21959,-0.975592,-0.975592,0.21959,333.438,140.057)">
            <tspan
               id="tspan3507"
               y="0"
               x="0"
               style="font-size:43.30358887px;font-variant:normal;font-weight:normal;writing-mode:lr-tb;fill:#231f20;fill-opacity:1;fill-rule:nonzero;stroke:none;font-family:Myriad;-inkscape-font-specification:Myriad-Roman">m</tspan>
          </text>
          <text
             id="text3509"
             transform="matrix(-0.423933,-0.905693,-0.905693,0.423933,323.753,102.241)">
            <tspan
               id="tspan3511"
               y="0"
               x="0"
               style="font-size:43.30367661px;font-variant:normal;font-weight:normal;writing-mode:lr-tb;fill:#231f20;fill-opacity:1;fill-rule:nonzero;stroke:none;font-family:Myriad;-inkscape-font-specification:Myriad-Roman">a</tspan>
          </text>
          <text
             id="text3513"
             transform="matrix(-0.54572,-0.837968,-0.837968,0.54572,313.359,81.0281)">
            <tspan
               id="tspan3515"
               y="0"
               x="0"
               style="font-size:43.30371475px;font-variant:normal;font-weight:normal;writing-mode:lr-tb;fill:#231f20;fill-opacity:1;fill-rule:nonzero;stroke:none;font-family:Myriad;-inkscape-font-specification:Myriad-Roman">t</tspan>
          </text>
          <text
             id="text3517"
             transform="matrix(-0.62913,-0.7773,-0.7773,0.62913,303.74,66.7309)">
            <tspan
               id="tspan3519"
               y="0"
               x="0"
               style="font-size:43.30379486px;font-variant:normal;font-weight:normal;writing-mode:lr-tb;fill:#231f20;fill-opacity:1;fill-rule:nonzero;stroke:none;font-family:Myriad;-inkscape-font-specification:Myriad-Roman">i</tspan>
          </text>
          <text
             id="text3521"
             transform="matrix(-0.7199,-0.694078,-0.694078,0.7199,295.628,56.4988)">
            <tspan
               id="tspan3523"
               y="0"
               x="0"
               style="font-size:43.30360794px;font-variant:normal;font-weight:normal;writing-mode:lr-tb;fill:#231f20;fill-opacity:1;fill-rule:nonzero;stroke:none;font-family:Myriad;-inkscape-font-specification:Myriad-Roman">k</tspan>
          </text>
          <text
             id="text3525"
             transform="matrix(1,0,0,-1,122.259,30.5)">
            <tspan
               id="tspan3527"
               sodipodi:role="line"
               y="0"
               x="0 17.679907 32.915813 40.039101 53.325264 67.052811 76.933197 88.217201 95.341202 104.88223 118.61022"
               style="font-size:26px;font-variant:normal;font-weight:bold;writing-mode:lr-tb;fill:#231f20;fill-opacity:1;fill-rule:nonzero;stroke:none;font-family:Myriad;-inkscape-font-specification:Myriad-Bold">Universität</tspan>
            <tspan
               id="tspan3529"
               sodipodi:role="line"
               y="24"
               x="-18.5121 -2.521867 11.2059 21.007927 28.132099 39.414902 49.216927 64.375099 79.611099 93.339104 98.591103 107.9252 122.17303 140.086"
               style="font-size:26px;font-variant:normal;font-weight:bold;writing-mode:lr-tb;fill:#231f20;fill-opacity:1;fill-rule:nonzero;stroke:none;font-family:Myriad;-inkscape-font-specification:Myriad-Bold">Karlsruhe (TH)</tspan>
          </text>
        </g>
      </g>
    </g>
  </g>
</svg>
